Coordinates
version=1
nRows=9
nColumns=63
inDegrees=yes

Units are S.I. units (second, meters, Newtons, ...)
If the header above contains a line with 'inDegrees', this indicates whether rotational values are in degrees (yes) or radians (no).

endheader
time	pelvis_tilt	pelvis_list	pelvis_rotation	pelvis_tx	pelvis_ty	pelvis_tz	hip_flexion_r	hip_adduction_r	hip_rotation_r	knee_angle_r	knee_angle_r_beta	ankle_angle_r	subtalar_angle_r	mtp_angle_r	hip_flexion_l	hip_adduction_l	hip_rotation_l	knee_angle_l	knee_angle_l_beta	ankle_angle_l	subtalar_angle_l	mtp_angle_l	L5_S1_Flex_Ext	L5_S1_Lat_Bending	L5_S1_axial_rotation	L4_L5_Flex_Ext	L4_L5_Lat_Bending	L4_L5_axial_rotation	L3_L4_Flex_Ext	L3_L4_Lat_Bending	L3_L4_axial_rotation	L2_L3_Flex_Ext	L2_L3_Lat_Bending	L2_L3_axial_rotation	L1_L2_Flex_Ext	L1_L2_Lat_Bending	L1_L2_axial_rotation	L1_T12_Flex_Ext	L1_T12_Lat_Bending	L1_T12_axial_rotation	Abs_r3	Abs_r2	Abs_r1	Abs_t1	Abs_t2	neck_flexion	neck_bending	neck_rotation	arm_flex_r	arm_add_r	arm_rot_r	elbow_flex_r	pro_sup_r	wrist_flex_r	wrist_dev_r	arm_flex_l	arm_add_l	arm_rot_l	elbow_flex_l	pro_sup_l	wrist_flex_l	wrist_dev_l
      1.62711864	     -1.37833395	     -5.05486854	     89.96188294	      0.29865424	      0.85558381	      0.79241903	      7.50858796	      1.25895986	     -3.27604306	     10.57506257	      0.18456966	     34.50106514	     16.82109113	      0.00000000	      8.92963348	     -0.17290846	     -1.45048814	     14.21919601	      0.24817179	     32.36241743	     -8.54340287	      0.00000000	      0.15261356	     -0.06717881	     -0.05455346	      0.28341865	     -0.08934782	     -0.05796305	      0.25072883	     -0.16333856	     -0.05796305	      0.17442204	     -0.16333856	     -0.04773428	      0.14171696	     -0.13699103	     -0.04432469	      0.08720339	     -0.10405998	     -0.04091509	      1.09010343	     -0.75994013	     -0.30340997	      0.00000000	      0.00000000	     24.57512283	      4.51690689	      7.00001968	     14.71806262	    -11.89028776	     53.72517071	     56.95844907	     86.69183366	      6.07448317	     10.46390165	      3.18345822	    -10.22188980	     24.54854321	     64.53352187	     63.18676051	      8.68817708	     12.63132162
      1.64406780	     -1.24794283	     -4.96716208	     90.16725433	      0.29877533	      0.85587146	      0.79190511	      7.32414888	      1.40767184	     -3.21055191	     10.50508457	      0.18334831	     34.35126779	     16.64794856	      0.00000000	      8.70715826	     -0.40702109	     -2.23091092	     14.01641049	      0.24463251	     32.49800413	     -7.09260846	      0.00000000	      0.14993004	     -0.06199280	     -0.12129867	      0.27843508	     -0.08245043	     -0.12887984	      0.24632006	     -0.15072930	     -0.12887984	      0.17135504	     -0.15072930	     -0.10613634	      0.13922503	     -0.12641572	     -0.09855517	      0.08567002	     -0.09602685	     -0.09097400	      1.07093527	     -0.70127498	     -0.67462683	      0.00000000	      0.00000000	     24.67267458	      4.15873546	      6.67353392	     14.99077163	    -11.92266569	     54.74048039	     56.92042177	     87.20042918	      5.00374948	      9.57923875	      2.86752372	    -10.29053673	     23.92920127	     64.71431326	     64.12469840	      8.40760352	     12.44545295
      1.66101695	     -1.06506474	     -4.88931993	     90.67785780	      0.29839858	      0.85612120	      0.79129697	      7.08178008	      1.56273613	     -3.63671531	     10.31725984	      0.18007015	     34.25457976	     16.71752443	      0.00000000	      8.51116767	     -0.59159330	     -2.23104674	     13.78883926	      0.24066065	     32.49573107	     -6.32874308	      0.00000000	      0.15161793	     -0.05483834	     -0.21748472	      0.28156966	     -0.07293499	     -0.23107751	      0.24909310	     -0.13333393	     -0.23107751	      0.17328413	     -0.13333393	     -0.19029913	      0.14079241	     -0.11182633	     -0.17670633	      0.08663449	     -0.08494458	     -0.16311354	      1.08299173	     -0.62034222	     -1.20958476	      0.00000000	      0.00000000	     24.93217951	      3.76391855	      6.16820814	     15.10882261	    -11.94921186	     55.41169860	     56.89675051	     87.50205808	      4.01803877	      8.66922707	      2.62252222	    -10.28050479	     23.40018540	     64.86345193	     64.59571548	      7.84478866	     12.36752178
      1.67796610	     -0.86386199	     -4.84007583	     91.01523245	      0.29818090	      0.85631516	      0.79067641	      6.92762349	      1.75020852	     -3.95470082	     10.21293190	      0.17824929	     34.19376090	     16.81059003	      0.00000000	      8.29743032	     -0.79740274	     -2.22586257	     13.47012041	      0.23509795	     32.53920249	     -5.76446824	      0.00000000	      0.16150477	     -0.04638422	     -0.23509330	      0.29993052	     -0.06169101	     -0.24978663	      0.26533619	     -0.11277859	     -0.24978663	      0.18458381	     -0.11277859	     -0.20570663	      0.14997333	     -0.09458670	     -0.19101330	      0.09228383	     -0.07184915	     -0.17631997	      1.15361245	     -0.52470756	     -1.30751838	      0.00000000	      0.00000000	     25.22111326	      3.30684793	      5.56486548	     14.93254442	    -11.97155164	     55.38077951	     56.96722483	     87.70039164	      3.11886007	      8.13780613	      2.62598307	    -10.25916526	     23.35429755	     64.83840462	     63.94572619	      7.07941424	     12.27633622
      1.69491525	     -0.67623051	     -4.76308760	     91.53787000	      0.29764318	      0.85659802	      0.79009041	      6.67980877	      1.91816837	     -4.36467334	      9.97860067	      0.17415944	     34.04631839	     16.70168293	      0.00000000	      8.12026209	     -0.90034541	     -1.44365580	     13.21604930	      0.23066357	     32.45697360	     -5.98502573	      0.00000000	      0.16736576	     -0.04453038	     -0.21183018	      0.31081496	     -0.05922540	     -0.22506957	      0.27496521	     -0.10827116	     -0.22506957	      0.19128233	     -0.10827116	     -0.18535141	      0.15541585	     -0.09080634	     -0.17211202	      0.09563280	     -0.06897755	     -0.15887264	      1.19547692	     -0.50373653	     -1.17813592	      0.00000000	      0.00000000	     25.58617450	      3.07716635	      4.77340481	     14.30305563	    -11.91456256	     54.18290799	     57.00798877	     87.49120890	      2.43831764	      7.62098083	      2.90620030	    -10.02593719	     23.37984456	     64.62790989	     63.98821886	      6.46784537	     12.58659877
      1.71186441	     -0.52788566	     -4.71499852	     91.91131079	      0.29733402	      0.85677252	      0.78964865	      6.52337593	      2.04613076	     -4.82303659	      9.85281039	      0.17196398	     33.93132054	     16.73608910	      0.00000000	      7.96980038	     -0.96904620	     -0.60611519	     12.95492295	      0.22610606	     32.51206043	     -6.28932985	      0.00000000	      0.17615539	     -0.04737522	     -0.10325153	      0.32713818	     -0.06300905	     -0.10970475	      0.28940569	     -0.11518812	     -0.10970475	      0.20132800	     -0.11518812	     -0.09034509	      0.16357790	     -0.09660756	     -0.08389187	      0.10065519	     -0.07338422	     -0.07743865	      1.25826034	     -0.53591801	     -0.57425404	      0.00000000	      0.00000000	     25.75203269	      2.94417513	      4.05134716	     13.39773735	    -11.81085215	     52.16663919	     57.11175726	     87.03474396	      1.84314195	      7.21492758	      3.54928182	     -9.88786066	     24.11911859	     64.25299192	     63.64392417	      5.69453040	     12.61678601
      1.72881356	     -0.40105144	     -4.62278758	     92.22713406	      0.29691568	      0.85701377	      0.78905681	      6.34683415	      2.13562920	     -5.35929891	      9.83647888	      0.17167894	     33.86249021	     16.86710563	      0.00000000	      7.73195320	     -0.96920845	      0.64822546	     12.63210494	      0.22047182	     32.45834459	     -7.19753276	      0.00000000	      0.17878267	     -0.04954893	      0.05648791	      0.33201730	     -0.06590008	      0.06001840	      0.29372205	     -0.12047328	      0.06001840	      0.20433071	     -0.12047328	      0.04942692	      0.16601759	     -0.10104019	      0.04589643	      0.10215642	     -0.07675130	      0.04236593	      1.27702673	     -0.56050745	      0.31416881	      0.00000000	      0.00000000	     25.72374365	      2.82886187	      3.27785054	     12.31803454	    -11.67715177	     49.55840944	     57.25393005	     85.93208693	      1.79109985	      7.24642612	      4.43260480	     -9.84348702	     25.68471036	     63.72599852	     62.70235551	      4.53059077	     11.88286574
      1.74576271	     -0.28161233	     -4.58853712	     92.62517341	      0.29652873	      0.85722586	      0.78842068	      6.17684093	      2.23082905	     -5.86020097	      9.74246954	      0.17003817	     33.68693314	     16.81865961	      0.00000000	      7.59113328	     -1.00506197	      1.59526151	     12.38974244	      0.21624180	     32.51086302	     -7.54752211	      0.00000000	      0.18629148	     -0.04783382	      0.15249422	      0.34596191	     -0.06361898	      0.16202511	      0.30605827	     -0.11630315	      0.16202511	      0.21291253	     -0.11630315	      0.13343244	      0.17299027	     -0.09754273	      0.12390155	      0.10644695	     -0.07409459	      0.11437066	      1.33066142	     -0.54110575	      0.84812710	      0.00000000	      0.00000000	     25.44267952	      3.41671293	      3.71370926	     11.55689444	    -11.45681761	     47.75502508	     57.13518662	     83.29100348	      1.37330794	      6.98875678	      5.04933580	     -9.74835122	     26.65338620	     63.28252646	     62.75198432	      4.11606856	     11.38434149
      1.76271186	     -0.19624610	     -4.59013221	     93.01684158	      0.29606110	      0.85735780	      0.78762850	      6.00166606	      2.28105113	     -6.36475127	      9.58431119	      0.16727779	     33.52580868	     16.87595004	      0.00000000	      7.43668278	     -1.00088146	      2.52711459	     12.07633697	      0.21077184	     32.50380804	     -7.88471855	      0.00000000	      0.19628652	     -0.04614375	      0.22008556	      0.36452370	     -0.06137119	      0.23384091	      0.32247912	     -0.11219392	      0.23384091	      0.22433586	     -0.11219392	      0.19257487	      0.18227166	     -0.09409634	      0.17881952	      0.11215812	     -0.07147667	      0.16506417	      1.40205498	     -0.52198737	      1.22404986	      0.00000000	      0.00000000	     25.07600861	      4.24462098	      4.66316099	     11.00026094	    -11.27934842	     46.63130809	     56.94153266	     78.41459182	      1.10862338	      6.80835893	      5.42794034	     -9.70466016	     27.46299353	     62.98558440	     63.18615518	      3.75998817	     10.69189713
